<svg width="209" height="209" viewBox="0 0 209 209" fill="none" xmlns="http://www.w3.org/2000/svg">
<path d="M104.417 146.184L146.184 104.417L131.566 89.7987L114.859 106.505V62.6502H93.9754V106.505L77.2686 89.7987L62.6502 104.417L104.417 146.184ZM104.417 208.834C89.9727 208.834 76.3985 206.093 63.6944 200.611C50.9903 195.129 39.9395 187.69 30.542 178.292C21.1445 168.895 13.7047 157.844 8.22285 145.14C2.74095 132.436 0 118.861 0 104.417C0 89.9727 2.74095 76.3985 8.22285 63.6944C13.7047 50.9903 21.1445 39.9395 30.542 30.542C39.9395 21.1445 50.9903 13.7047 63.6944 8.22285C76.3985 2.74095 89.9727 0 104.417 0C118.861 0 132.436 2.74095 145.14 8.22285C157.844 13.7047 168.895 21.1445 178.292 30.542C187.69 39.9395 195.129 50.9903 200.611 63.6944C206.093 76.3985 208.834 89.9727 208.834 104.417C208.834 118.861 206.093 132.436 200.611 145.14C195.129 157.844 187.69 168.895 178.292 178.292C168.895 187.69 157.844 195.129 145.14 200.611C132.436 206.093 118.861 208.834 104.417 208.834ZM104.417 187.951C127.737 187.951 147.489 179.858 163.674 163.674C179.858 147.489 187.951 127.737 187.951 104.417C187.951 81.0973 179.858 61.345 163.674 45.1604C147.489 28.9757 127.737 20.8834 104.417 20.8834C81.0973 20.8834 61.345 28.9757 45.1604 45.1604C28.9757 61.345 20.8834 81.0973 20.8834 104.417C20.8834 127.737 28.9757 147.489 45.1604 163.674C61.345 179.858 81.0973 187.951 104.417 187.951Z" fill="black"/>
</svg>
