<svg width="145" height="145" viewBox="0 0 145 145" fill="none" xmlns="http://www.w3.org/2000/svg">
<path d="M48.206 116.691C48.206 116.092 47.6217 115.494 46.7452 115.494C45.8687 115.494 45.2844 116.092 45.2844 116.691C45.2844 117.289 45.8687 117.888 46.7452 117.589C47.6217 117.589 48.206 117.289 48.206 116.691ZM39.1491 115.195C39.1491 115.793 39.7334 116.691 40.6099 116.691C41.1942 116.99 42.0707 116.691 42.3628 116.092C42.3628 115.494 42.0707 114.896 41.1942 114.596C40.3177 114.297 39.4413 114.596 39.1491 115.195ZM52.2962 114.896C51.4197 114.896 50.8354 115.494 50.8354 116.392C50.8354 116.99 51.7119 117.289 52.5884 116.99C53.4648 116.691 54.0491 116.392 53.757 115.793C53.757 115.195 52.8805 114.596 52.2962 114.896ZM71.2864 0C30.9687 0 0 31.716 0 73.0066C0 106.219 20.1589 134.643 49.3746 144.816C53.1727 145.415 54.3413 143.021 54.3413 141.226C54.3413 139.131 54.3413 128.958 54.3413 122.675C54.3413 122.675 33.8903 127.163 29.5079 113.699C29.5079 113.699 26.2942 105.022 21.6197 102.927C21.6197 102.927 14.9 98.1401 21.9118 98.1401C21.9118 98.1401 29.2158 98.7385 33.306 105.919C39.7334 117.589 50.2511 114.297 54.6335 112.203C55.2178 107.415 56.9707 104.124 59.308 102.03C42.9472 100.235 26.2942 97.8408 26.2942 69.1169C26.2942 60.7391 28.6314 56.8494 33.306 51.4637C32.4295 49.3692 30.0922 41.5898 34.1824 31.1176C40.0256 29.3223 54.3413 39.1962 54.3413 39.1962C60.1845 37.4009 66.3198 36.8025 72.4551 36.8025C78.8825 36.8025 85.0178 37.4009 90.861 39.1962C90.861 39.1962 104.885 29.0231 111.02 31.1176C115.11 41.5898 112.481 49.3692 111.896 51.4637C116.571 56.8494 119.492 60.7391 119.492 69.1169C119.492 97.8408 102.255 100.235 85.8943 102.03C88.5237 104.423 90.861 108.912 90.861 116.092C90.861 125.966 90.5688 138.533 90.5688 140.927C90.5688 143.021 92.0296 145.415 95.8277 144.517C125.043 134.643 144.91 106.219 144.91 73.0066C144.91 31.716 111.896 0 71.2864 0ZM28.3393 103.227C27.755 103.526 28.0471 104.423 28.3393 105.022C28.9236 105.321 29.5079 105.62 30.0922 105.321C30.3844 105.022 30.3844 104.124 29.8001 103.526C29.2158 103.227 28.6314 102.927 28.3393 103.227ZM25.1255 100.833C24.8334 101.431 25.1255 101.731 25.7099 102.03C26.2942 102.329 26.8785 102.329 27.1707 101.731C27.1707 101.431 26.8785 101.132 26.2942 100.833C25.7099 100.534 25.4177 100.534 25.1255 100.833ZM34.4746 111.604C34.1824 111.904 34.1824 112.801 35.0589 113.4C35.6432 113.998 36.5197 114.297 36.8119 113.699C37.104 113.4 37.104 112.502 36.5197 111.904C35.9354 111.305 35.0589 111.006 34.4746 111.604ZM31.2609 107.116C30.6765 107.415 30.6765 108.313 31.2609 108.912C31.8452 109.51 32.4295 109.809 33.0138 109.51C33.306 109.211 33.306 108.313 33.0138 107.715C32.4295 107.116 31.8452 106.817 31.2609 107.116Z" fill="white"/>
</svg>
