<svg width="145" height="145" viewBox="0 0 145 145" fill="none" xmlns="http://www.w3.org/2000/svg">
<path d="M46.1333 113.211V49.7422H26.3921V113.211H46.1333ZM36.1566 41.2514C42.5247 41.2514 47.6192 35.9446 47.6192 29.5765C47.6192 23.4207 42.5247 18.3262 36.1566 18.3262C30.0007 18.3262 24.9062 23.4207 24.9062 29.5765C24.9062 35.9446 30.0007 41.2514 36.1566 41.2514ZM119.791 113.211H120.004V78.3988C120.004 61.4171 116.183 48.2563 96.2292 48.2563C86.677 48.2563 80.3089 53.5631 77.5494 58.4453H77.3371V49.7422H58.445V113.211H78.1862V81.7951C78.1862 73.5166 79.6721 65.6625 89.8611 65.6625C100.05 65.6625 100.262 75.0025 100.262 82.4319V113.211H119.791Z" fill="white"/>
</svg>
