<svg width="141" height="141" viewBox="0 0 141 141" fill="none" xmlns="http://www.w3.org/2000/svg">
<path d="M70.1681 140.336C108.547 140.336 140.336 108.615 140.336 70.1684C140.336 31.7897 108.547 0 70.1002 0C31.7217 0 0 31.7897 0 70.1684C0 108.615 31.7897 140.336 70.1681 140.336ZM29.2764 27.4424C36.069 20.9893 44.2882 16.0307 53.4582 13.3136C48.6355 18.1364 44.5599 24.9291 41.5032 33.2161C36.7483 31.7217 32.6727 29.7519 29.2764 27.4424ZM86.9463 13.3816C96.0484 16.0986 104.267 20.9893 110.992 27.4424C107.664 29.8198 103.588 31.7217 98.833 33.284C95.7766 24.9291 91.7011 18.1364 86.9463 13.3816ZM74.9229 15.5552C80.561 18.2723 85.7233 25.6083 89.3913 35.5936C84.9083 36.4086 80.0857 36.8842 74.9229 37.0879V15.5552ZM50.945 35.5936C54.6809 25.6083 59.7757 18.2723 65.4133 15.5552V37.0879C60.251 36.8842 55.4281 36.4086 50.945 35.5936ZM11.072 65.4136C12.023 53.8658 16.3703 43.2013 23.0271 34.4388C27.1707 37.4955 32.5369 40.1447 38.7861 42.1145C37.02 49.1789 35.8653 57.0581 35.5256 65.4136H11.072ZM104.811 65.4136C104.471 57.0581 103.317 49.1789 101.55 42.1145C107.799 40.1447 113.166 37.5634 117.241 34.4388C123.966 43.2013 128.314 53.8658 129.264 65.4136H104.811ZM45.2391 65.4136C45.5788 58.0093 46.5977 50.945 48.16 44.5598C53.5941 45.6467 59.3676 46.326 65.4133 46.5977V65.4136H45.2391ZM74.9229 65.4136V46.5977C80.9685 46.326 86.7423 45.6467 92.1764 44.5598C93.7386 50.945 94.7576 58.0093 95.0972 65.4136H74.9229ZM11.072 74.9232H35.5256C35.8653 83.4138 37.02 91.3612 38.7861 98.4937C32.6048 100.463 27.3065 103.044 23.2309 106.102C16.4382 97.2707 12.023 86.5386 11.072 74.9232ZM45.2391 74.9232H65.4133V94.0786C59.436 94.3499 53.5941 95.0292 48.2279 96.0482C46.5977 89.5951 45.5108 82.3948 45.2391 74.9232ZM74.9229 94.0786V74.9232H95.0972C94.8254 82.3948 93.7386 89.5951 92.1086 96.0482C86.7423 95.0292 80.9685 94.3499 74.9229 94.0786ZM101.55 98.4937C103.384 91.3612 104.471 83.4138 104.811 74.9232H129.264C128.314 86.5386 123.898 97.2707 117.106 106.102C113.03 103.044 107.732 100.463 101.55 98.4937ZM74.9229 103.588C80.0173 103.792 84.8405 104.268 89.2556 105.082C85.5877 114.864 80.4932 122.132 74.9229 124.781V103.588ZM51.0808 105.082C55.4961 104.268 60.3188 103.792 65.4133 103.588V124.781C59.8435 122.132 54.7489 114.864 51.0808 105.082ZM29.4801 113.098C32.8085 110.788 36.8842 108.887 41.5711 107.392C44.6278 115.543 48.6355 122.2 53.3224 126.955C44.3561 124.238 36.2049 119.415 29.4801 113.098ZM98.7652 107.392C103.452 108.887 107.528 110.788 110.857 113.098C104.132 119.415 95.98 124.238 87.0142 126.955C91.7011 122.2 95.7088 115.543 98.7652 107.392Z" fill="white"/>
</svg>
